<svg width="45" height="45" viewBox="0 0 45 45" fill="none" xmlns="http://www.w3.org/2000/svg">
<path d="M0.0109266 23.4701C0.270643 29.1111 2.61575 34.4269 6.60631 38.4202C9.6932 41.5093 13.6723 43.6779 17.8382 44.5419C19.5233 44.8913 20.6333 45 22.5155 45C24.3977 45 25.5077 44.8913 27.1928 44.5419C31.3587 43.6779 35.3378 41.5093 38.4247 38.4202C41.5117 35.3311 43.6789 31.3493 44.5422 27.1805C44.8913 25.4943 45 24.3835 45 22.5C45 20.6165 44.8913 19.5057 44.5422 17.8195C43.6789 13.6507 41.5117 9.66885 38.4247 6.57983C35.3378 3.49072 31.3587 1.32205 27.1928 0.458142C25.5077 0.108735 24.3977 -3.56747e-06 22.5155 -3.48519e-06C20.6333 -3.40292e-06 19.5233 0.108735 17.8382 0.458143C13.6723 1.32205 9.6932 3.49072 6.60631 6.57983C2.98757 10.2011 0.694453 14.9549 0.139506 19.9866C0.037277 20.9134 -0.0267925 22.65 0.0109266 23.4701ZM11.3703 25.5177C11.5452 25.0936 21.1627 15.4301 21.6783 15.1604C22.1516 14.9127 22.8794 14.9127 23.3527 15.1604C23.8683 15.4301 33.4858 25.0936 33.6607 25.5177C33.9356 26.1839 33.7794 27.0319 33.2846 27.56C32.7771 28.1015 31.8648 28.2953 31.1713 28.0088C30.9459 27.9156 29.544 26.5738 26.6796 23.7099L22.5155 19.5464L18.3514 23.7099C15.4871 26.5738 14.0851 27.9156 13.8597 28.0088C13.1939 28.2838 12.3465 28.1276 11.8188 27.6324C11.2776 27.1245 11.084 26.2116 11.3703 25.5177Z" fill="black" fill-opacity="0.6"/>
</svg>
