<svg width="45" height="45" viewBox="0 0 45 45" fill="none" xmlns="http://www.w3.org/2000/svg">
<path d="M21.1214 0.0230985C15.1526 0.537781 10.3556 2.7509 6.4126 6.80901C0.64687 12.7432 -1.38631 21.066 0.948537 29.1758C2.42136 34.2912 5.97927 38.9815 10.559 41.845C12.6953 43.1808 16.1908 44.519 18.5264 44.8953C18.7267 44.9276 18.9623 44.9736 19.0499 44.9977C19.2008 45.039 19.2093 44.6133 19.2093 36.979V28.9168H16.6597H14.1102V25.6852V22.4537H16.652H19.1938L19.2356 19.1083C19.2812 15.4489 19.3064 15.2353 19.8713 13.7321C20.8603 11.0997 23.2667 9.30823 26.3789 8.8874C27.4434 8.74339 30.1504 8.81376 31.9343 9.03169L33.2318 9.19026V12.0379V14.8857L30.614 14.9169C28.1447 14.9464 27.9668 14.9599 27.4792 15.1548C26.5463 15.5278 25.8587 16.454 25.673 17.5882C25.6241 17.8861 25.584 19.1027 25.5837 20.2917L25.5832 22.4537H28.9563H32.3296L32.2784 22.7495C32.2002 23.2027 31.3197 28.8286 31.3197 28.8756C31.3197 28.8982 30.3158 28.9168 29.0888 28.9168H26.858V36.979C26.858 44.6148 26.8664 45.0388 27.0173 44.994C27.105 44.968 27.2996 44.9198 27.4498 44.8871C32.8169 43.7147 38.147 39.9426 41.3604 35.0425C45.5086 28.7166 46.1718 20.1142 43.0363 13.3052C39.758 6.18637 33.3758 1.35395 25.7889 0.245849C24.5831 0.0697058 22.0064 -0.0532755 21.1214 0.0230985Z" fill="white" fill-opacity="0.6"/>
</svg>
