<svg width="45" height="45" viewBox="0 0 45 45" fill="none" xmlns="http://www.w3.org/2000/svg">
<path d="M20.5121 0.0526808C13.674 0.556186 7.37497 4.34343 3.57214 10.2377C2.78925 11.4511 1.77486 13.525 1.30387 14.875C-0.736251 20.7226 -0.37162 27.033 2.3227 32.5056C7.80989 43.6509 21.0234 48.1713 31.9478 42.6406C42.8963 37.0977 47.3585 23.613 41.9212 12.5012C40.1592 8.90041 37.4974 5.85341 34.173 3.63185C33.0239 2.86393 30.7182 1.70321 29.4756 1.26695C26.6642 0.280137 23.41 -0.160712 20.5121 0.0526808ZM29.1705 8.83829C33.0355 9.47595 35.2702 11.8746 35.7637 15.915C35.8888 16.939 35.8888 28.0581 35.7637 29.0821C35.2596 33.2097 32.8945 35.6616 28.8995 36.1984C28.3237 36.2758 26.3016 36.2959 21.6317 36.2708C15.8134 36.2396 15.0945 36.22 14.4968 36.0757C10.9451 35.2189 8.93959 32.8901 8.47454 29.0821C8.34948 28.0581 8.34948 16.939 8.47454 15.915C8.96467 11.9019 11.1915 9.49506 15.0216 8.83874C16.0706 8.65898 28.0812 8.65862 29.1705 8.83829Z" fill="white" fill-opacity="0.6"/>
<path d="M16.0449 11.4028C14.1851 11.578 12.9721 12.1743 12.1357 13.3244C11.6505 13.9914 11.4333 14.4621 11.1895 15.3738C11.0183 16.0145 11.0069 16.3551 10.9742 21.8636C10.9371 28.1256 10.9764 28.9828 11.3546 30.1445C11.6122 30.9362 12.2254 31.912 12.7577 32.3772C13.2767 32.8307 14.24 33.2753 15.1172 33.466C15.8048 33.6155 16.4158 33.6298 22.1191 33.6298C27.8198 33.6298 28.4331 33.6155 29.1132 33.4664C30.4908 33.1643 31.4195 32.6057 32.1038 31.6675C32.5949 30.9941 32.8488 30.4341 33.0743 29.5279C33.2315 28.8955 33.2424 28.4395 33.2424 22.4959C33.2424 16.5523 33.2315 16.0963 33.0743 15.464C32.8488 14.5578 32.5949 13.9977 32.1038 13.3244C31.4396 12.4138 30.5214 11.8473 29.206 11.5367C28.62 11.3983 27.8758 11.3781 22.6509 11.3581C19.4092 11.3458 16.4365 11.3659 16.0449 11.4028ZM23.7815 15.3293C26.4139 15.96 28.5222 18.1121 29.1791 20.8393C29.3975 21.7458 29.3751 23.4108 29.1323 24.3331C28.4296 27.0011 26.3957 29.0194 23.7478 29.6764C22.9364 29.8778 21.3051 29.8786 20.4975 29.6781C17.797 29.0077 15.7173 26.8907 15.0571 24.1404C14.8611 23.3241 14.8625 21.6622 15.0599 20.8393C15.7704 17.8759 18.131 15.6582 21.059 15.2029C21.7659 15.093 23.0428 15.1522 23.7815 15.3293ZM30.0635 13.898C30.2457 13.986 30.46 14.2048 30.5971 14.4428C31.2205 15.5249 30.3528 16.8669 29.1484 16.6832C28.3878 16.5672 27.7768 15.7343 27.9133 14.9993C27.9929 14.5707 28.2744 14.1394 28.6106 13.9309C28.968 13.7092 29.6408 13.694 30.0635 13.898Z" fill="white" fill-opacity="0.6"/>
<path d="M20.9851 17.9487C20.1471 18.1781 19.5332 18.5453 18.884 19.2057C17.0296 21.0919 17.0447 23.9624 18.9191 25.8319C21.4649 28.3712 25.6883 27.1492 26.5942 23.6114C26.8584 22.5798 26.7252 21.4205 26.2195 20.348C25.9011 19.6728 24.8948 18.6493 24.2311 18.3254C23.1853 17.8151 21.9826 17.6755 20.9851 17.9487Z" fill="white" fill-opacity="0.6"/>
</svg>
