<?xml version="1.0" encoding="utf-8"?>
<!DOCTYPE svg PUBLIC "-//W3C//DTD SVG 20010904//EN" "http://www.w3.org/TR/2001/REC-SVG-20010904/DTD/svg10.dtd">
<svg version="1.0" xmlns="http://www.w3.org/2000/svg" width="514pt" height="514pt" viewBox="0 0 514 514" style="" preserveAspectRatio="xMidYMid meet">
<g fill="#000000FF" stroke="#000000FF">
<path d="M 239.983 1.979 C 209.852 4.014 180.585 11.331 152.005 23.976 C 108.030 43.430 67.074 79.032 40.931 120.528 C -17.171 212.754 -10.478 331.983 57.563 416.801 C 99.805 469.457 160.223 502.771 228.500 511.051 C 252.624 513.977 287.496 512.075 312.272 506.482 C 376.862 491.902 433.226 453.352 469.422 399.000 C 523.355 318.015 526.898 212.263 478.458 129.309 C 429.073 44.736 336.755 -4.556 239.983 1.979 M 288.500 119.458 C 322.743 125.506 351.123 138.236 374.536 158.052 C 412.201 189.929 426.468 237.778 410.971 280.243 C 407.203 290.566 403.054 297.845 392.584 312.500 C 365.496 350.417 323.393 383.715 264.821 413.543 C 251.044 420.560 246.891 421.410 243.201 417.972 C 239.923 414.919 239.710 412.478 241.425 397.681 C 243.583 379.066 243.503 376.412 240.697 373.606 C 238.995 371.904 236.711 371.116 231.947 370.587 C 213.186 368.504 191.128 361.842 172.500 352.632 C 134.922 334.053 109.474 305.216 99.948 270.416 C 96.861 259.141 96.133 237.394 98.456 225.902 C 102.673 205.046 110.574 189.177 125.374 171.834 C 149.632 143.408 191.223 123.108 235.615 118.027 C 246.897 116.735 277.823 117.572 288.500 119.458 "/></g>
<g fill="#000000FF" stroke="#000000FF">
<path d="M 254.455 211.455 L 252.000 213.909 252.000 247.320 C 252.000 279.606 252.070 280.819 254.073 283.365 C 256.607 286.587 261.644 286.917 265.139 284.090 C 267.450 282.221 267.511 281.743 268.000 261.514 L 268.500 240.847 284.902 262.174 C 293.922 273.903 301.996 284.063 302.843 284.750 C 305.579 286.971 310.637 286.277 312.927 283.365 C 314.930 280.819 315.000 279.606 315.000 247.320 L 315.000 213.909 312.545 211.455 C 309.546 208.455 306.130 208.323 302.635 211.073 L 300.000 213.145 300.000 233.573 C 300.000 244.808 299.601 254.000 299.113 254.000 C 298.626 254.000 291.088 244.673 282.363 233.274 C 273.638 221.874 265.713 211.749 264.750 210.774 C 262.215 208.205 257.385 208.524 254.455 211.455 "/></g>
<g fill="#000000FF" stroke="#000000FF">
<path d="M 330.861 210.911 L 328.500 212.821 328.212 246.918 L 327.924 281.015 330.417 283.508 C 332.907 285.998 332.927 286.000 352.882 286.000 L 372.855 286.000 374.927 283.365 C 377.660 279.891 377.565 275.879 374.686 273.174 C 372.534 271.153 371.374 271.000 358.186 271.000 L 344.000 271.000 344.000 263.000 L 344.000 255.000 357.566 255.000 C 371.950 255.000 374.530 254.367 376.009 250.477 C 377.149 247.479 375.499 242.337 372.961 240.979 C 371.955 240.441 365.008 240.000 357.524 240.000 L 343.916 240.000 344.208 232.250 L 344.500 224.500 358.699 224.223 C 372.662 223.950 372.932 223.903 374.949 221.338 C 377.678 217.869 377.538 214.447 374.545 211.455 C 372.108 209.017 371.957 209.000 352.656 209.000 C 335.015 209.000 333.004 209.176 330.861 210.911 "/></g>
<g fill="#000000FF" stroke="#000000FF">
<path d="M 169.174 211.314 C 167.029 213.598 167.000 214.092 167.000 247.814 C 167.000 280.667 167.078 282.078 169.000 284.000 C 170.866 285.866 172.333 286.000 190.927 286.000 L 210.855 286.000 212.927 283.365 C 215.551 280.030 215.558 276.979 212.949 273.662 C 210.932 271.097 210.662 271.050 196.699 270.777 L 182.500 270.500 182.234 242.048 C 181.976 214.460 181.903 213.525 179.810 211.298 C 176.934 208.236 172.059 208.244 169.174 211.314 "/></g>
<g fill="#000000FF" stroke="#000000FF">
<path d="M 225.441 210.419 C 223.582 211.778 223.500 213.353 223.500 247.500 C 223.500 281.647 223.582 283.222 225.441 284.581 C 228.271 286.650 235.322 286.407 237.345 284.171 C 238.819 282.543 239.000 278.506 239.000 247.326 C 239.000 214.673 238.877 212.198 237.171 210.655 C 234.914 208.612 228.100 208.476 225.441 210.419 "/></g>
</svg>
