<?xml version="1.0" encoding="utf-8"?>
<!DOCTYPE svg PUBLIC "-//W3C//DTD SVG 20010904//EN" "http://www.w3.org/TR/2001/REC-SVG-20010904/DTD/svg10.dtd">
<svg version="1.0" xmlns="http://www.w3.org/2000/svg" width="514pt" height="514pt" viewBox="0 0 514 514" style="" preserveAspectRatio="xMidYMid meet">
<g fill="#000000FF" stroke="#000000FF">
<path d="M 239.983 1.979 C 209.852 4.014 180.585 11.331 152.005 23.976 C 108.030 43.430 67.074 79.032 40.931 120.528 C -17.171 212.754 -10.478 331.983 57.563 416.801 C 99.805 469.457 160.223 502.771 228.500 511.051 C 252.624 513.977 287.496 512.075 312.272 506.482 C 376.862 491.902 433.226 453.352 469.422 399.000 C 523.355 318.015 526.898 212.263 478.458 129.309 C 429.073 44.736 336.755 -4.556 239.983 1.979 M 281.500 98.470 C 334.478 106.063 379.836 137.746 402.518 183.000 C 407.645 193.228 410.653 201.487 413.794 213.956 C 416.233 223.642 416.451 226.169 416.472 245.000 C 416.494 264.154 416.313 266.218 413.720 276.446 C 412.193 282.466 409.331 291.466 407.360 296.446 C 388.821 343.281 344.365 379.309 291.900 390.017 C 268.529 394.787 246.165 394.753 221.298 389.908 L 210.500 387.805 184.823 401.906 C 170.700 409.661 158.438 416.279 157.573 416.610 C 156.165 417.151 156.000 414.229 156.000 388.795 L 156.000 360.376 152.813 358.020 C 146.257 353.172 133.485 340.209 126.928 331.746 C 111.219 311.471 101.176 287.744 97.894 263.156 C 96.098 249.697 97.289 225.788 100.371 213.429 C 111.412 169.156 141.317 133.341 184.175 113.064 C 200.400 105.388 218.865 100.062 237.500 97.683 C 245.306 96.686 272.443 97.172 281.500 98.470 "/></g>
<g fill="#000000FF" stroke="#000000FF">
<path d="M 197.282 249.750 L 155.230 294.500 193.702 273.600 L 232.174 252.700 236.442 257.100 C 238.789 259.520 247.964 269.235 256.831 278.689 L 272.952 295.878 315.034 251.189 C 338.179 226.610 356.683 206.598 356.155 206.718 C 355.626 206.838 338.921 215.950 319.033 226.968 C 299.145 237.985 282.524 247.000 282.098 247.000 C 281.671 247.000 272.209 237.550 261.071 226.000 C 249.933 214.450 240.485 205.000 240.077 205.000 C 239.668 205.000 220.411 225.138 197.282 249.750 "/></g>
</svg>
