<svg width="45" height="45" viewBox="0 0 45 45" fill="none" xmlns="http://www.w3.org/2000/svg">
<path d="M20.9027 0.0549367C15.475 0.445238 10.4801 2.73526 6.60122 6.61185C3.53749 9.67376 1.45645 13.4345 0.533691 17.5768C-0.176352 20.7639 -0.177938 24.2549 0.529197 27.416C2.42599 35.8953 9.121 42.5943 17.5727 44.4697C20.7538 45.1755 24.2695 45.1768 27.4177 44.4734C31.6323 43.5318 35.33 41.4926 38.4163 38.4081C42.0096 34.8169 44.175 30.4162 44.853 25.3265C45.049 23.8558 45.049 21.161 44.853 19.6904C43.9215 12.6979 40.0056 6.74554 33.9603 3.13305C30.1349 0.847163 25.4019 -0.268612 20.9027 0.0549367ZM25.5413 5.56759C28.864 6.02253 31.6378 7.33883 33.7816 9.47808C34.8217 10.5159 35.6448 11.6616 36.3421 13.0415C36.889 14.1237 37.6116 16.0778 37.5033 16.1817C37.4701 16.2135 36.8089 16.4168 36.0339 16.6333L34.6249 17.027L34.3078 16.135C33.6208 14.2029 32.8816 12.9636 31.6878 11.7425C30.5245 10.5526 29.3377 9.80639 27.6786 9.22138C24.8575 8.22678 20.9471 8.20872 18.0482 9.17699C15.4432 10.0471 13.4443 11.8189 12.1526 14.4033C10.9834 16.7421 10.3641 20.5669 10.5985 24.0018C10.9889 29.7236 13.0048 33.435 16.7356 35.3004C19.6373 36.7513 24.4141 36.9741 27.6295 35.8085C29.7071 35.0555 31.5243 33.5218 32.3713 31.8065C32.8212 30.8952 32.9904 30.1593 32.9904 29.1133C32.9904 27.7676 32.6877 26.8127 31.9474 25.8233C31.6584 25.437 30.5131 24.4458 30.3558 24.4458C30.3207 24.4458 30.2439 24.706 30.1853 25.024C29.6714 27.8116 28.2223 29.876 26.0759 30.8782C24.9057 31.4247 24.3425 31.5334 22.6834 31.5334C21.0239 31.5334 20.4604 31.4245 19.291 30.8778C17.4147 30.0006 16.3315 28.6297 16.0103 26.7261C15.8868 25.9943 15.8868 25.8356 16.0105 25.0796C16.4083 22.6469 18.339 20.8139 21.1694 20.1818C22.2838 19.9329 24.035 19.8392 25.53 19.9484C26.2664 20.0022 26.9603 20.0704 27.0718 20.0999C27.2575 20.1491 27.2696 20.1322 27.2151 19.9C26.6612 17.5388 25.2739 16.4351 22.8597 16.4351C21.4097 16.4351 20.3063 16.8517 19.4454 17.7243L18.895 18.2823L17.6634 17.4672C16.9859 17.0189 16.4307 16.6188 16.4295 16.578C16.4217 16.3236 17.6645 15.0828 18.4354 14.5752C19.7957 13.6798 21.3325 13.2977 23.2562 13.3765C25.0318 13.4493 26.3823 13.8884 27.5907 14.7858C29.06 15.8772 30.0786 17.8618 30.3651 20.1914L30.4668 21.018L31.2656 21.4304C33.8082 22.7429 35.3814 24.7438 35.9207 27.3515C36.1515 28.4676 36.1038 30.3914 35.819 31.447C35.5746 32.3528 34.8007 33.9249 34.2291 34.6765C33.6185 35.4795 32.2354 36.7696 31.3637 37.3493C29.3206 38.708 27.1406 39.3794 24.0713 39.5951C20.1801 39.8688 16.4439 38.9698 13.6982 37.0992C12.7091 36.4252 11.1079 34.7864 10.4121 33.7356C8.43263 30.7465 7.49859 27.1471 7.49859 22.5084C7.49859 17.8697 8.43263 14.2704 10.4121 11.2813C11.1634 10.1468 12.7364 8.56081 13.8277 7.83753C16.9307 5.78123 21.1413 4.96523 25.5413 5.56759Z" fill="white" fill-opacity="0.6"/>
<path d="M22.9037 23.0332C20.5351 23.2635 19.0556 24.3398 19.0359 25.8471C19.0199 27.0634 19.8579 27.9823 21.3335 28.3664C21.9835 28.5356 23.3834 28.5356 24.0334 28.3664C25.6153 27.9546 26.6506 26.7353 27.0771 24.7819C27.3683 23.4475 27.3749 23.3102 27.1498 23.2592C26.1913 23.0421 24.0075 22.9259 22.9037 23.0332Z" fill="white" fill-opacity="0.6"/>
</svg>
