<svg width="45" height="45" viewBox="0 0 45 45" fill="none" xmlns="http://www.w3.org/2000/svg">
<path d="M20.9027 0.0549367C15.475 0.445238 10.4801 2.73526 6.60122 6.61185C3.53749 9.67376 1.45645 13.4345 0.533691 17.5768C-0.176352 20.7639 -0.177938 24.2549 0.529197 27.416C2.42599 35.8953 9.121 42.5943 17.5727 44.4697C20.7538 45.1755 24.2695 45.1768 27.4177 44.4734C31.6323 43.5318 35.33 41.4926 38.4163 38.4081C42.0096 34.8169 44.175 30.4162 44.853 25.3265C45.049 23.8558 45.049 21.161 44.853 19.6904C43.9215 12.6979 40.0056 6.74554 33.9603 3.13305C30.1349 0.847163 25.4019 -0.268612 20.9027 0.0549367ZM20.6046 14.0576C23.0711 17.647 23.9628 18.8815 24.0418 18.8159C24.1004 18.7672 25.9898 16.5859 28.2403 13.9686L32.3322 9.20975L33.5006 9.2323L34.669 9.25475L29.8619 14.8393C27.0097 18.1528 25.0735 20.4724 25.1007 20.5433C25.1259 20.609 27.4489 24.0113 30.2628 28.104C33.0767 32.1966 35.4016 35.6039 35.4291 35.6756C35.4728 35.7898 34.993 35.8059 31.6147 35.8042L27.7501 35.8023L25.4397 32.4357C24.169 30.5842 22.5782 28.267 21.9047 27.2865L20.68 25.5036L16.2482 30.6549L11.8165 35.8061H10.6779C9.97114 35.8061 9.55056 35.7733 9.5688 35.7196C9.58493 35.672 11.8385 33.0306 14.5767 29.8498C17.3149 26.669 19.5665 24.0391 19.5802 24.0055C19.5938 23.972 17.3448 20.6592 14.5823 16.6437C11.8197 12.6282 9.55832 9.31314 9.55682 9.27677C9.55532 9.24049 11.2911 9.21072 13.4141 9.21072H17.2741L20.6046 14.0576Z" fill="white" fill-opacity="0.6"/>
<path d="M12.7883 11.0951C12.827 11.1629 16.4473 16.3526 20.8333 22.6277L28.8078 34.037L30.5041 34.0407C31.4371 34.0429 32.2003 34.022 32.2003 33.9943C32.2003 33.9668 28.5847 28.7754 24.1656 22.4579L16.131 10.9717H14.4244C12.9864 10.9717 12.7289 10.9911 12.7883 11.0951Z" fill="white" fill-opacity="0.6"/>
</svg>
